# xmcd
#
# Track frame offsets: 
#        150
#        22135
#        42000
#        54562
#        72565
#        88465
#        102052
#        116377
#        137197
#        164507
#        183875
#        211062
#        229197
#
# Disc length: 3290 seconds
#
# Revision: 0
# Processed by: cddbd v1.5PL3 Copyright (c) Steve Scherf et al.
# Submitted via: ExactAudioCopy v0.95a3
#
DISCID=b60cd80d
DTITLE=Bijou Phillips - I'd Rather Eat Glass
DYEAR=1999
DGENRE=
TTITLE0=Hawaii
TTITLE1=Polite
TTITLE2=I Own You
TTITLE3=A Am A Mountain
TTITLE4=little Dipper
TTITLE5=Stranded
TTITLE6=I Never Shot The President
TTITLE7=So Tired
TTITLE8=Mermaid and the Earthman
TTITLE9=Just Look Around
TTITLE10=When I Hated Him (Don't Tell Me)
TTITLE11=Breakfast
TTITLE12=Slow
EXTD=
EXTT0=
EXTT1=
EXTT2=
EXTT3=
EXTT4=
EXTT5=
EXTT6=
EXTT7=
EXTT8=
EXTT9=
EXTT10=
EXTT11=
EXTT12=
PLAYORDER=
